<svg width="30" height="15" viewBox="0 0 14 15" fill="none" xmlns="http://www.w3.org/2000/svg">
<g>
	<g>
		<g>
			<path d="M60.79,100.57c0.08-13.93,3.73-27.35,11.96-39.31c10.77-15.64,25.6-25.11,44.38-28.03c16.17-2.52,31.48,0.21,45.63,8.61
				c12.25,7.26,20.99,17.65,26.79,30.59c4.66,10.41,6.74,21.36,6.11,32.69c-1.4,24.99-12.57,44.39-34.14,57.36
				c-11.83,7.12-24.82,9.67-38.6,8.62c-24.88-1.9-47.86-18.75-57.45-44.02C62.3,118.71,60.79,110.03,60.79,100.57 M128.91,156.04
				c1.15-0.06,2.63-0.13,4.11-0.2c0.37-0.02,0.74-0.02,1.1-0.07c12.79-1.53,23.71-6.86,32.21-16.56
				c12.98-14.79,17.04-32.02,12.58-51.06c-3.44-14.68-11.73-26.15-24.87-33.78c-10.62-6.16-22.14-7.97-34.18-6.02
				C103.4,51.02,90.87,59.64,82.92,74.3c-8.23,15.19-8.86,31.12-3.06,47.27C87.37,142.48,106.55,155.95,128.91,156.04"/>
			<polygon points="260.87,169.86 260.87,35.53 220.52,35.53 220.52,52.22 244.18,52.22 244.18,169.86 			"/>
		</g>
		<path d="M425.91,156.03l-0.08,20.66l-17.45-17.45c18.33-12.88,27.92-31.13,29.21-54.13c0.63-11.33-1.45-22.29-6.11-32.69
			c-5.79-12.94-14.54-23.32-26.79-30.59c-14.15-8.39-29.47-11.12-45.63-8.61c-18.77,2.92-33.6,12.4-44.38,28.03
			c-8.24,11.96-11.88,25.38-11.96,39.31c0,9.46,1.5,18.13,4.68,26.51c9.59,25.27,32.57,42.12,57.45,44.02
			c11.1,0.85,21.68-0.7,31.56-5.03l42.63,42.64l0.15-52.64L425.91,156.03z M397.55,148.4l-25.14-25.14l-9.4,9.4l21.45,21.45
			c-2.71,0.75-5.51,1.32-8.41,1.67c-0.37,0.04-0.74,0.05-1.11,0.07c-1.47,0.07-2.95,0.14-4.11,0.2
			c-22.35-0.09-41.53-13.56-49.04-34.47c-5.8-16.15-5.17-32.09,3.06-47.27c7.95-14.66,20.48-23.28,36.94-25.94
			c12.04-1.94,23.57-0.14,34.18,6.02c13.14,7.63,21.43,19.09,24.87,33.77c4.46,19.04,0.4,36.27-12.58,51.06
			C405.03,142.9,401.45,145.95,397.55,148.4z"/>
	</g>
</g>
</svg>
